<?xml version="1.0" encoding="UTF-8"?> <svg xmlns="http://www.w3.org/2000/svg" width="31" height="26" viewBox="0 0 31 26" fill="none"><g clip-path="url(#clip0_4549_5339)"><path fill-rule="evenodd" clip-rule="evenodd" d="M25.9891 2.44185L26.6355 3.29294C26.8053 3.51757 26.7628 3.83954 26.5382 4.00925L25.8519 4.53089C25.9766 4.86284 26.0565 5.21725 26.089 5.57915L26.8702 5.68647C27.1497 5.72391 27.3444 5.98348 27.3069 6.26302L27.1622 7.32376C27.1247 7.6033 26.8652 7.80047 26.5856 7.76054L25.732 7.64323C25.5798 7.97518 25.3851 8.27968 25.1555 8.55172L25.6347 9.18068C25.8044 9.40531 25.7595 9.72728 25.5349 9.897L24.6838 10.5434C24.4592 10.7131 24.1372 10.6682 23.9675 10.4461L23.4458 9.75972C23.1114 9.88452 22.7595 9.96438 22.3951 9.99683L22.2878 10.778C22.2503 11.0576 21.9908 11.2522 21.7112 11.2148L20.6505 11.0701C20.3709 11.0326 20.1763 10.773 20.2137 10.4935L20.331 9.63992C20.0015 9.48767 19.6946 9.293 19.4225 9.06587L18.7936 9.54258C18.5689 9.7123 18.247 9.66987 18.0772 9.44524L17.4308 8.59415C17.2611 8.36953 17.3035 8.04756 17.5281 7.87784L18.2145 7.35621C18.0897 7.02176 18.0098 6.66984 17.9774 6.30794L17.1962 6.20062C16.9167 6.16318 16.7195 5.90361 16.7594 5.62408L16.9042 4.56334C16.9441 4.2838 17.2012 4.08912 17.4807 4.12656L18.3343 4.24387C18.4866 3.91441 18.6812 3.60742 18.9084 3.33537L18.4317 2.70641C18.2619 2.48428 18.3044 2.16232 18.529 1.9926L19.3801 1.34617C19.6047 1.17645 19.9267 1.21888 20.0964 1.44351L20.618 2.12987C20.95 2.00508 21.3044 1.92521 21.6663 1.89276L21.7736 1.11156C21.811 0.832021 22.0706 0.634848 22.3502 0.672286L23.4109 0.817046C23.6904 0.854484 23.8876 1.11405 23.8477 1.39359L23.7304 2.24718C24.0623 2.39942 24.3668 2.5941 24.6414 2.82372L25.2703 2.34701C25.4949 2.1748 25.8169 2.21722 25.9891 2.44185ZM7.73938 17.4195V13.3014H9.86086C10.2552 13.3014 10.5547 13.3338 10.7619 13.4037C10.969 13.4711 11.1387 13.5959 11.2635 13.7781C11.3908 13.9628 11.4557 14.1849 11.4557 14.447C11.4557 14.6741 11.4058 14.8737 11.3085 15.0385C11.2111 15.2057 11.0763 15.3405 10.9066 15.4428C10.7993 15.5077 10.6496 15.5626 10.4599 15.605C10.6121 15.6574 10.7219 15.7049 10.7893 15.7573C10.8367 15.7922 10.9041 15.8646 10.9915 15.9744C11.0788 16.0842 11.1387 16.1716 11.1687 16.2315L11.7877 17.422H10.35L9.67117 16.1666C9.58382 16.0044 9.50894 15.8971 9.44155 15.8496C9.34921 15.7872 9.24438 15.7548 9.12957 15.7548H9.01726V17.422H7.73938V17.4195ZM12.2269 24.5901H9.85088L9.50894 25.7083H7.36749L9.92076 18.922H12.217L14.7602 25.7083H12.5639L12.2269 24.5901ZM11.7827 23.1201L11.0414 20.6791L10.2976 23.1201H11.7827ZM15.2544 18.922H18.7436C19.5049 18.922 20.0739 19.1017 20.4508 19.4636C20.8277 19.8255 21.0174 20.3422 21.0174 21.0086C21.0174 21.675 20.8102 22.2316 20.3984 22.6184C19.9866 23.0053 19.3551 23.1974 18.509 23.1974H17.3584V25.7083H15.2544V18.922ZM17.3584 21.8222H17.8751C18.2819 21.8222 18.5689 21.7523 18.7337 21.6101C18.8984 21.4703 18.9807 21.2881 18.9807 21.071C18.9807 20.8538 18.9084 20.6766 18.7661 20.5294C18.6238 20.3821 18.3543 20.3072 17.9599 20.3072H17.3584V21.8222ZM21.866 18.922H23.97V25.7083H21.866V18.922ZM9.01726 14.9736H9.55387C9.61127 14.9736 9.72359 14.9536 9.89081 14.9162C9.97567 14.8987 10.0456 14.8563 10.098 14.7864C10.1529 14.7165 10.1778 14.6366 10.1778 14.5468C10.1778 14.4145 10.1354 14.3097 10.0505 14.2398C9.96568 14.1674 9.80845 14.1325 9.57633 14.1325H9.01726V14.9736ZM12.0323 13.3014H15.4391V14.1799H13.3101V14.8363H15.2844V15.6749H13.3101V16.4861H15.5015V17.417H12.0323V13.3014ZM15.8035 16.0568L17.0115 15.9819C17.0365 16.1791 17.0914 16.3263 17.1712 16.4287C17.3035 16.5934 17.4907 16.6783 17.7328 16.6783C17.9125 16.6783 18.0548 16.6358 18.1521 16.551C18.2495 16.4661 18.2994 16.3663 18.2994 16.254C18.2994 16.1416 18.2519 16.0518 18.1596 15.9669C18.0673 15.8821 17.8501 15.8047 17.5082 15.7273C16.9516 15.6025 16.5548 15.4353 16.3152 15.2282C16.0756 15.021 15.9558 14.7564 15.9558 14.4345C15.9558 14.2223 16.0182 14.0227 16.1404 13.8355C16.2627 13.6483 16.4474 13.4985 16.6945 13.3912C16.9416 13.2839 17.2786 13.2315 17.7078 13.2315C18.2345 13.2315 18.6338 13.3288 18.9109 13.526C19.1854 13.7232 19.3501 14.0326 19.4025 14.4619L18.207 14.5343C18.1746 14.3471 18.1072 14.2098 18.0074 14.1275C17.905 14.0426 17.7628 14.0002 17.5856 14.0002C17.4383 14.0002 17.326 14.0326 17.2511 14.095C17.1762 14.1574 17.1388 14.2348 17.1388 14.3247C17.1388 14.3895 17.1712 14.447 17.2311 14.5019C17.291 14.5543 17.4308 14.6067 17.6554 14.6541C18.212 14.7739 18.6114 14.8962 18.851 15.0185C19.0906 15.1408 19.2678 15.2931 19.3751 15.4753C19.4849 15.655 19.5398 15.8596 19.5398 16.0842C19.5398 16.3488 19.4674 16.5909 19.3202 16.813C19.1754 17.0352 18.9708 17.2049 18.7087 17.3197C18.4466 17.4345 18.1172 17.4919 17.7178 17.4919C17.019 17.4919 16.5323 17.3571 16.2627 17.0876C15.9932 16.813 15.8409 16.4711 15.8035 16.0568ZM19.7245 13.3014H23.5956V14.3197H22.2977V17.4195H21.0249V14.3197H19.7245V13.3014ZM15.4416 3.52755C14.9849 3.49261 14.5231 3.4976 14.0664 3.54253C12.6612 3.6773 11.296 4.18896 10.1679 5.065C8.86251 6.07583 7.87166 7.58832 7.48979 9.5925L7.36999 10.219L6.74602 10.3288C6.13454 10.4361 5.58794 10.5834 5.10874 10.7705C4.64451 10.9502 4.23019 11.1724 3.86829 11.4344C3.57877 11.6441 3.32919 11.8787 3.11704 12.1333C2.46063 12.9195 2.15613 13.9054 2.16362 14.9037C2.17111 15.917 2.50056 16.9403 3.10955 17.7814C3.33667 18.0934 3.59874 18.3804 3.89824 18.63C4.20274 18.8821 4.54467 19.0918 4.92903 19.249C5.14617 19.3388 5.37829 19.4137 5.62039 19.4736V21.343C5.12122 21.2532 4.66198 21.1184 4.23269 20.9412C3.66613 20.7066 3.16446 20.4046 2.72269 20.0352C2.30339 19.6858 1.93649 19.2889 1.62451 18.8571C0.793389 17.709 0.344134 16.3064 0.334151 14.9087C0.324167 13.496 0.763439 12.0909 1.71187 10.9527C2.01886 10.5834 2.38076 10.2439 2.79507 9.94442C3.27677 9.595 3.82836 9.30048 4.45232 9.05838C4.88161 8.89116 5.34085 8.75139 5.82505 8.63908C6.37414 6.4577 7.5447 4.77798 9.0497 3.61241C10.4574 2.52172 12.1521 1.88528 13.8967 1.71805C14.8127 1.6307 15.7411 1.67063 16.6496 1.84035C16.6296 1.92271 16.6122 2.00508 16.6022 2.08994V2.10491C16.5822 2.24718 16.5747 2.38944 16.5822 2.5342C16.39 2.60908 16.2103 2.71141 16.0481 2.8362L16.0406 2.84119C15.7985 3.02339 15.5939 3.258 15.4416 3.52755ZM28.6472 8.31961C28.787 8.4469 28.9218 8.57918 29.054 8.72144C29.3211 9.00847 29.5732 9.33293 29.8103 9.69483C30.609 10.9228 31.0183 12.5626 31.0008 14.1674C30.9833 15.7423 30.559 17.3097 29.6905 18.4628C29.1239 19.2141 28.3976 19.828 27.5266 20.3147C26.9301 20.6492 26.2587 20.9262 25.5274 21.1508V19.2165C25.9217 19.0693 26.2886 18.9046 26.6256 18.7174C27.282 18.3505 27.8186 17.9037 28.2204 17.3671C28.8444 16.536 29.1514 15.3604 29.1639 14.1549C29.1788 12.8895 28.8693 11.6191 28.2678 10.6957C28.0956 10.4286 27.9059 10.189 27.7063 9.97437C27.6289 9.892 27.5515 9.81463 27.4717 9.73976C27.4841 9.61496 27.4891 9.48767 27.4816 9.36039C27.6738 9.28551 27.8535 9.18318 28.0158 9.05838L28.0233 9.05339C28.2803 8.85622 28.495 8.60663 28.6472 8.31961ZM22.3177 3.862C23.4683 4.01924 24.272 5.07998 24.1147 6.23057C23.9575 7.38117 22.8967 8.18733 21.7462 8.03009C20.5956 7.87285 19.7894 6.81211 19.9491 5.66152C20.1089 4.51092 21.1671 3.70476 22.3177 3.862Z" fill="#232323"></path></g><defs><clipPath id="clip0_4549_5339"><rect width="30.6667" height="25.041" fill="white" transform="translate(0.333984 0.666748)"></rect></clipPath></defs></svg> 